<svg width="50" height="50" viewBox="0 0 50 50" fill="none" xmlns="http://www.w3.org/2000/svg">
<g clip-path="url(#clip0_150_318)">
<path d="M41.1312 37.5938L33.15 35.5979L32.4708 32.8813C34.6063 30.7667 36.0688 27.8625 36.5021 24.8833C37.6854 24.55 38.6021 23.5354 38.7604 22.2625L39.2812 18.0958C39.3916 17.2166 39.1207 16.3271 38.5374 15.6604C38.1957 15.2687 37.7645 14.9729 37.2874 14.7916L37.4791 10.8687L38.2583 10.0874C39.4313 8.83945 40.4041 6.6999 38.3708 3.5957C36.8083 1.21045 34.1542 0 30.4792 0C29.0292 0 25.6917 0 22.5834 2.0875C13.7083 2.27295 12.5 6.3958 12.5 10.4167C12.5 11.3521 12.727 13.4584 12.8771 14.7292C12.3416 14.8979 11.8562 15.2105 11.4771 15.6417C10.8833 16.3146 10.6083 17.2084 10.7188 18.0979L11.2396 22.2646C11.4104 23.6229 12.4416 24.6917 13.7458 24.9459C14.1771 27.8104 15.5646 30.6209 17.5771 32.7001L16.8521 35.6021L8.8708 37.5979C3.6458 38.9 0 43.5708 0 48.9583C0 49.5333 0.466699 50 1.0417 50H48.9584C49.5334 50 50.0001 49.5292 50.0001 48.9542C50 43.5708 46.3542 38.9 41.1312 37.5938Z" fill="white"/>
</g>
<defs>
<clipPath id="clip0_150_318">
<rect width="50" height="50" fill="white"/>
</clipPath>
</defs>
</svg>
