<svg width="20" height="21" viewBox="0 0 20 21" fill="none" xmlns="http://www.w3.org/2000/svg">
<path d="M16.9472 10.7473C16.9119 10.8345 16.8611 10.9134 16.797 10.9791L10.9899 16.9263C10.7179 17.2049 10.2769 17.2049 10.005 16.9263C9.73296 16.6478 9.73296 16.1961 10.005 15.9176L14.623 11.188L2.6965 11.188C2.31182 11.188 2 10.8687 2 10.4747C2 10.0808 2.31182 9.76143 2.6965 9.76143L14.623 9.76143L9.99619 5.02286C9.7242 4.7443 9.7242 4.29274 9.99619 4.01417C10.2682 3.73561 10.7092 3.73561 10.9812 4.01417L16.797 9.97033C16.8611 10.036 16.9119 10.1149 16.9472 10.2021C17.0176 10.3766 17.0176 10.5729 16.9472 10.7473Z" fill="#9A9A9A"/>
</svg>
