<svg width="20" height="21" viewBox="0 0 20 21" fill="none" xmlns="http://www.w3.org/2000/svg">
<path d="M2.05283 10.0773C2.08808 10.1645 2.13889 10.2434 2.20305 10.3091L8.01008 16.2563C8.28207 16.5349 8.72305 16.5349 8.99505 16.2563C9.26704 15.9778 9.26704 15.5261 8.99505 15.2476L4.37697 10.518H16.3035C16.6882 10.518 17 10.1987 17 9.80474C17 9.41078 16.6882 9.09143 16.3035 9.09143H4.37697L9.00381 4.35286C9.2758 4.0743 9.2758 3.62274 9.00381 3.34418C8.73182 3.06561 8.29083 3.06561 8.01884 3.34418L2.20305 9.30033C2.13889 9.36604 2.08808 9.44487 2.05283 9.53207C1.98239 9.70655 1.98239 9.90286 2.05283 10.0773Z" fill="#9A9A9A"/>
</svg>
